<svg xmlns="http://www.w3.org/2000/svg" viewBox="0 0 34.88 47.71"><g id="Layer_2" data-name="Layer 2"><g id="Layer_1-2" data-name="Layer 1"><path d="M34.84,14.5c-.28-2.49-2.36-4.14-5.11-4.15H14.52c-3.3,0-6.6,0-9.9,0A4.71,4.71,0,0,0,0,15.31c.27,3.24.6,6.48.9,9.72.57,6,1.15,12.11,1.69,18.17a4.82,4.82,0,0,0,4.68,4.49q10.4,0,20.79,0a4.72,4.72,0,0,0,4.59-4.34c.27-3.15.51-6.3.76-9.46q.66-8.1,1.29-16.21A17,17,0,0,0,34.84,14.5ZM10.61,42.4A2.38,2.38,0,0,1,7.15,41,2.85,2.85,0,0,1,7,40.32q-.45-10.74-.87-21.49a2.41,2.41,0,0,1,2.3-2.59A2.43,2.43,0,0,1,11,18.77c.16,3.56.3,7.12.44,10.68s.28,6.9.43,10.35A2.58,2.58,0,0,1,10.61,42.4Zm9.22-2.18A2.34,2.34,0,0,1,18.4,42.5a2.26,2.26,0,0,1-2.49-.34,2.35,2.35,0,0,1-.86-2c0-5.91,0-11.83,0-17.74V18.71a2.39,2.39,0,1,1,4.77,0c0,3.59,0,7.17,0,10.76Zm8,.1a2.85,2.85,0,0,1-.11.65,2.38,2.38,0,0,1-3.46,1.43A2.56,2.56,0,0,1,23,39.8q.23-5.17.43-10.35c.14-3.56.27-7.12.44-10.68a2.43,2.43,0,0,1,2.5-2.53,2.41,2.41,0,0,1,2.3,2.59Q28.31,29.57,27.84,40.32Z" style="fill:#fff"/><path d="M32.33,2.55H23A2.55,2.55,0,0,0,20.49,0h-6.1a2.55,2.55,0,0,0-2.55,2.55H2.55A2.55,2.55,0,0,0,0,5.09H0A2.55,2.55,0,0,0,2.55,7.64H32.33a2.55,2.55,0,0,0,2.55-2.55h0A2.55,2.55,0,0,0,32.33,2.55Z" style="fill:#fff"/></g></g></svg>