<svg xmlns="http://www.w3.org/2000/svg" viewBox="0 0 16.41 14.34"><g id="Layer_2" data-name="Layer 2"><g id="Layer_1-2" data-name="Layer 1"><path d="M16.32,6.68a4.87,4.87,0,0,0-.23-2.87,1,1,0,0,0-.95-.56c-.92,0-2.21,1-3.38,3-1.69,2.93-2.1,6.33-1.4,7.53s2.64.5,4.33-2.44A13.38,13.38,0,0,0,16.32,6.68Z" style="fill:#22b573"/><path d="M1.72,11.34C3.41,14.28,5.36,15,6.06,13.78a5,5,0,0,0,.22-2.87A13.38,13.38,0,0,0,4.65,6.25,6.7,6.7,0,0,0,2,3.42a1.77,1.77,0,0,0-.71-.16,1,1,0,0,0-.94.55A5,5,0,0,0,.09,6.68,13.58,13.58,0,0,0,1.72,11.34Z" style="fill:#22b573"/><path d="M10.59,5.46C10.34,2.33,9.37,0,8.2,0S6.07,2.33,5.81,5.46a18,18,0,0,1,1.36,4.67,13,13,0,0,1,.06,3.45,1.31,1.31,0,0,0,1,.58,1.3,1.3,0,0,0,1-.59A16,16,0,0,1,10.59,5.46Z" style="fill:#22b573"/></g></g></svg>