<svg xmlns="http://www.w3.org/2000/svg" viewBox="0 0 25.17 25.17"><g id="Layer_2" data-name="Layer 2"><g id="Layer_1-2" data-name="Layer 1"><circle cx="12.59" cy="12.59" r="12.59" style="fill:#22b573"/><path d="M10.63,13.89V13c0-1.85,3-2.66,3-4.07A1.5,1.5,0,0,0,12,7.59c-1.54,0-2,1.38-2.51.9L8.17,7.17a.39.39,0,0,1,0-.58,6.18,6.18,0,0,1,4.47-1.93c2.33,0,4.49,1.63,4.49,3.85,0,2.91-3.3,3-3.3,5.38a.42.42,0,0,1-.42.42H11.05A.42.42,0,0,1,10.63,13.89Zm1.59,2.44a2.14,2.14,0,0,1,2.11,2.12,2.09,2.09,0,1,1-2.11-2.12Z" style="fill:#fff"/></g></g></svg>