<svg xmlns="http://www.w3.org/2000/svg" viewBox="0 0 78.35 131.59"><g id="Layer_2" data-name="Layer 2"><g id="Layer_1-2" data-name="Layer 1"><path d="M29,68.44a2.07,2.07,0,0,0-4.14,0,2.07,2.07,0,1,0,4.14,0Z" style="fill:#22b573"/><path d="M47.1,93.4a2.07,2.07,0,1,0,2.1,2.1A2.11,2.11,0,0,0,47.1,93.4Z" style="fill:#22b573"/><path d="M39.18,0S0,53.65,0,92.41a39.18,39.18,0,1,0,78.35,0C78.35,53.65,39.18,0,39.18,0ZM18.9,68.44a8.1,8.1,0,0,1,16.2,0,8.1,8.1,0,1,1-16.2,0ZM28.8,103H24.36a1.08,1.08,0,0,1-1-1.62L43.92,61.6a1.25,1.25,0,0,1,1-.6H49.5a1.08,1.08,0,0,1,1,1.62L29.82,102.4A1.79,1.79,0,0,1,28.8,103Zm18.3.6a8.1,8.1,0,1,1,8.16-8.1A8.14,8.14,0,0,1,47.1,103.6Z" style="fill:#22b573"/></g></g></svg>