<svg xmlns="http://www.w3.org/2000/svg" viewBox="0 0 232.36 232.3"><g id="Layer_2" data-name="Layer 2"><g id="Layer_1-2" data-name="Layer 1"><rect x="0.06" width="232.29" height="232.29" style="fill:#7fddb9"/><path d="M162.22,140.39a153.88,153.88,0,0,1,16.68,47.29,151.86,151.86,0,0,0-22-46.74c-10.44-2.05-40.86-3.74,28.44,68.1C195.92,146.5,183.33,129.28,162.22,140.39Z" style="fill:#9cf2cf"/><path d="M48,56a91.05,91.05,0,0,1,3.91,29.47,90.31,90.31,0,0,0-7-29.8c-5.81-2.46-23.24-7.16,8.18,43C66.82,63.66,61.62,52.13,48,56Z" style="fill:#9cf2cf"/><path d="M47.71,157.34A116.61,116.61,0,0,0,30.2,191.13a115,115,0,0,1,21.41-32.82c8.06-.45,31.1,1.48-28.53,48.19C21.73,158.39,33,146.77,47.71,157.34Z" style="fill:#9cf2cf"/><path d="M61.43,199.55A154.89,154.89,0,0,1,74.8,232.3H88.37C89,199.28,77.73,191,61.43,199.55Z" style="fill:#9cf2cf"/><path d="M71.55,227.91A155.12,155.12,0,0,0,56.16,200.1c-8.27-1.62-29.07-3-2.9,32.2H73.33C72.76,230.83,72.17,229.36,71.55,227.91Z" style="fill:#9cf2cf"/><path d="M232.36,82.11a1.88,1.88,0,0,1-.16-.23c-8.58-1.69-30.61-3.12.16,36.2Z" style="fill:#9cf2cf"/><path d="M142,187.73a110.47,110.47,0,0,0-16,34,111.7,111.7,0,0,1,12.13-34.37c-14.78-7.78-23.8,3.55-17.63,45H126C170.29,185.09,149.37,186.29,142,187.73Z" style="fill:#9cf2cf"/><path d="M179.76,105.59A99.11,99.11,0,0,1,203,132.21,100.53,100.53,0,0,0,176,107.32c-8.15,1.37-30.91,8.16,36.64,37.18C206,100.84,192.72,92.84,179.76,105.59Z" style="fill:#9cf2cf"/><path d="M133.67,116.16a81.35,81.35,0,0,0-21.49,32.13,77.51,77.51,0,0,1,16.12-32.66c-14.42-7.95-24.85,15.68-22.72,44.77C167.65,117.58,144,115.53,133.67,116.16Z" style="fill:#9cf2cf"/><path d="M31.92,23.86a68.15,68.15,0,0,0-18,26.9,64.86,64.86,0,0,1,13.5-27.34C15.35,16.76,6.62,36.54,8.4,60.9,60.37,25.05,40.61,23.33,31.92,23.86Z" style="fill:#9cf2cf"/><path d="M82,95.89a95.43,95.43,0,0,0-14.52,43,90.94,90.94,0,0,1,8.28-41.92C57,92.34,52.36,122.3,63.68,154.61,120.9,87.1,93.53,92,82,95.89Z" style="fill:#9cf2cf"/><path d="M210.22,218.65a83.32,83.32,0,0,0-11.9,13.65h20.94C230,219,217.15,218.23,210.22,218.65Z" style="fill:#9cf2cf"/><path d="M185.05,232.3h10.42a78.75,78.75,0,0,1,9.38-14.18C196.19,213.35,189,220,185.05,232.3Z" style="fill:#9cf2cf"/><path d="M115.36,18A153.79,153.79,0,0,0,98.68,65.3a151.86,151.86,0,0,1,21.95-46.74c10.44-2,40.86-3.74-28.44,68.09C81.66,24.12,94.25,6.89,115.36,18Z" style="fill:#9cf2cf"/><path d="M201.35,40.3a111.1,111.1,0,0,0-12.06,34.2,109.6,109.6,0,0,1,15.87-33.8C212.72,39.22,234.71,38,184.59,90,177,44.72,186.08,32.26,201.35,40.3Z" style="fill:#9cf2cf"/><path d="M139.38,64.94a112.05,112.05,0,0,1,12.13,34.37,110.21,110.21,0,0,0-16-34c-7.59-1.49-29.69-2.72,20.68,49.49C163.88,69.39,154.73,56.87,139.38,64.94Z" style="fill:#9cf2cf"/><path d="M221.83,166.67a112.45,112.45,0,0,1,10.53,26.94V164.78C229.39,163.88,225.82,164.57,221.83,166.67Z" style="fill:#9cf2cf"/><path d="M232.36,195.77A111.19,111.19,0,0,0,218,167.07c-7.25-1.42-27.75-2.6,14.36,42.82Z" style="fill:#9cf2cf"/><path d="M84.6,35.9A245.2,245.2,0,0,0,88.37,0H74.8q2,7.19,3.31,14.54A147.1,147.1,0,0,0,73.33,0H53.26C60.13,9.23,70.21,21,84.6,35.9Z" style="fill:#9cf2cf"/><path d="M198.32,0a79.54,79.54,0,0,0-9.59,18.48A75.21,75.21,0,0,1,195.47,0H185.05c-2.61,8.22-3.77,19-2.92,30.6,20.65-14.25,31.81-24,37.13-30.6Z" style="fill:#9cf2cf"/><path d="M5.17,81.32a153.88,153.88,0,0,1,16.68,47.29A151.62,151.62,0,0,0,.06,82.12v36A419.12,419.12,0,0,0,28.34,150C38.87,87.44,26.28,70.21,5.17,81.32Z" style="fill:#9cf2cf"/><path d="M.06,164.78C.13,170.63-.61,195.9,1.65,201c-.48-1.77-1-3.52-1.59-5.26v14.11c2,2.12,4.06,4.34,6.31,6.67C12,183,8.49,167.36.06,164.78Z" style="fill:#9cf2cf"/><path d="M121.35,4.93Q123.81,2.38,126,0h-5.47C120.81,1.6,121.07,3.23,121.35,4.93Z" style="fill:#9cf2cf"/></g></g></svg>