<svg xmlns="http://www.w3.org/2000/svg" viewBox="0 0 869.59 80"><g id="Layer_2" data-name="Layer 2"><g id="Layer_1-2" data-name="Layer 1"><path d="M0,1.52A1.57,1.57,0,0,1,1.52,0H11a1.52,1.52,0,0,1,1.52,1.52V21.68H35.44V1.52A1.52,1.52,0,0,1,37,0h9.52A1.57,1.57,0,0,1,48,1.52v53A1.57,1.57,0,0,1,46.48,56H37a1.52,1.52,0,0,1-1.52-1.52v-21H12.56v21A1.52,1.52,0,0,1,11,56H1.52A1.57,1.57,0,0,1,0,54.48Z" style="fill:#22b573"/><path d="M71.68,23.2A16.8,16.8,0,1,1,55,39.92,16.85,16.85,0,0,1,71.68,23.2Zm0,23.28A6.44,6.44,0,0,0,78,39.92a6.32,6.32,0,1,0-12.64,0A6.44,6.44,0,0,0,71.68,46.48Z" style="fill:#22b573"/><path d="M93.76,25.52A1.52,1.52,0,0,1,95.28,24h8.56a1.52,1.52,0,0,1,1.52,1.52v14.8c0,3.28,1.84,6.16,5.12,6.16,3.12,0,4.8-3,4.8-5.68V25.52c0-1.28.88-1.52,1.68-1.52h8.16a1.52,1.52,0,0,1,1.52,1.52v29A1.57,1.57,0,0,1,125.12,56h-3.76a1.75,1.75,0,0,1-1.52-1.12l-1.2-3c-2.08,2-4.64,4.88-10.8,4.88-9.52,0-14.08-7.68-14.08-16.8Z" style="fill:#22b573"/><path d="M133.6,52.48,136.4,47a1.38,1.38,0,0,1,1.68-.64,17.69,17.69,0,0,0,7.2,2.08A1.4,1.4,0,0,0,146.8,47c0-.8-.48-1.92-4.56-3.36-6.24-2.16-9-5.76-9-10.72,0-5.36,3.84-9.68,12.48-9.68a21.17,21.17,0,0,1,10.64,2.48c.72.48,1.28,1.2.8,2l-3,5.44a1.41,1.41,0,0,1-1.68.48,18.4,18.4,0,0,0-6.8-1.84c-1,0-1.76.24-1.76,1.12s.88,1.6,3.6,2.56c6.48,2.24,11,4.8,11,11.2,0,5.6-4.48,10.16-13.52,10.16-5.28,0-9.28-1.36-10.88-2.64C133.6,53.68,133.2,53.2,133.6,52.48Z" style="fill:#22b573"/><path d="M179.12,23.2a15,15,0,0,1,15.2,15,19.62,19.62,0,0,1-.16,2.16,1.55,1.55,0,0,1-1.52,1.36h-19.2A5.94,5.94,0,0,0,179.6,47a10.43,10.43,0,0,0,5.6-1.92,1.39,1.39,0,0,1,2,0l4,4.8a1.72,1.72,0,0,1-.08,2.32,16.28,16.28,0,0,1-11.84,4.56,16.8,16.8,0,0,1-.16-33.6ZM183,35.52a4.31,4.31,0,0,0-4.24-3.76,4.46,4.46,0,0,0-4.32,3.76Z" style="fill:#22b573"/><path d="M212,78.48A1.57,1.57,0,0,1,210.48,80H201.6a1.57,1.57,0,0,1-1.52-1.52v-53A1.57,1.57,0,0,1,201.6,24h3.76c.8,0,1.36.72,1.68,1.6l1,2.64a13.84,13.84,0,0,1,10.72-5c9,0,15.84,7.6,15.84,16.8,0,11.28-7.36,16.8-15.92,16.8A16.16,16.16,0,0,1,212,55.28Zm5.12-32a6.34,6.34,0,0,0,6.48-6.4,6.42,6.42,0,0,0-6.48-6.56,6.36,6.36,0,0,0-6.4,6.56A6.27,6.27,0,0,0,217.12,46.48Z" style="fill:#22b573"/><path d="M240.88,1.52A1.57,1.57,0,0,1,242.4,0h8.8a1.57,1.57,0,0,1,1.52,1.52v53A1.57,1.57,0,0,1,251.2,56h-8.8a1.57,1.57,0,0,1-1.52-1.52Z" style="fill:#22b573"/><path d="M271,35.52a15,15,0,0,1,6.16,1.28c0-3.12-.48-4.72-4.32-4.72a34,34,0,0,0-8,1.2c-1.2.4-1.76-.48-1.92-1.68l-.72-5a1.71,1.71,0,0,1,1.2-2.16A56,56,0,0,1,274,23.2c9.92,0,13.52,4.16,13.52,13.6V54.48A1.57,1.57,0,0,1,286,56h-3.52A1.49,1.49,0,0,1,281,55l-1.12-2.16a13.36,13.36,0,0,1-9.68,4c-6.32,0-11-4.24-11-10.56C259.2,40.08,263.68,35.52,271,35.52ZM273,49a3.44,3.44,0,1,0,0-6.88,3.4,3.4,0,0,0-3.44,3.36A3.48,3.48,0,0,0,273,49Z" style="fill:#22b573"/><path d="M295.67,25.52A1.52,1.52,0,0,1,297.19,24H301a1.78,1.78,0,0,1,1.44,1l1.28,3.2a15.09,15.09,0,0,1,11.29-5c9.92,0,15.2,7.6,15.2,16.72V54.48A1.57,1.57,0,0,1,328.64,56h-8.56a1.52,1.52,0,0,1-1.52-1.52v-15c0-3.2-1.85-6-5.44-6a5.84,5.84,0,0,0-6.09,5.6V54.48A1.36,1.36,0,0,1,305.59,56h-8.4a1.57,1.57,0,0,1-1.52-1.52Z" style="fill:#22b573"/><path d="M339,34.16h-2.08a1.5,1.5,0,0,1-1.44-1.52V25.52A1.45,1.45,0,0,1,336.88,24H339V15.12a1.57,1.57,0,0,1,1.52-1.52H349a1.5,1.5,0,0,1,1.44,1.52V24h5.92a1.47,1.47,0,0,1,1.52,1.52v7.12a1.52,1.52,0,0,1-1.52,1.52h-5.92v10c0,1.76,1.2,1.92,2.16,1.92a15.62,15.62,0,0,0,3.12-.56,1.4,1.4,0,0,1,1.76,1l1.76,6.64a1.59,1.59,0,0,1-1,1.84,41.2,41.2,0,0,1-9.68,1.76c-6.08,0-9.6-3.84-9.6-11.12Z" style="fill:#22b573"/><path d="M370.4,11.76H359a1.52,1.52,0,0,1-1.52-1.52V1.52A1.52,1.52,0,0,1,359,0h35.52A1.52,1.52,0,0,1,396,1.52v8.72a1.52,1.52,0,0,1-1.52,1.52H383V54.48A1.57,1.57,0,0,1,381.52,56h-9.6a1.57,1.57,0,0,1-1.52-1.52Z" style="fill:#22b573"/><path d="M400.48,1.52A1.57,1.57,0,0,1,402,0h8.88a1.57,1.57,0,0,1,1.52,1.52V25a17,17,0,0,1,7.44-1.84c10.08,0,15.28,7.92,15.28,16.8V54.48A1.57,1.57,0,0,1,433.6,56h-8.48a1.52,1.52,0,0,1-1.52-1.52V39.84c0-3.52-2.32-6.32-5.84-6.32-2.56,0-5.36,1.44-5.36,6.32V54.48c0,1-.4,1.52-1.76,1.52H402a1.57,1.57,0,0,1-1.52-1.52Z" style="fill:#22b573"/><path d="M457,23.2a15,15,0,0,1,15.2,15,19.62,19.62,0,0,1-.16,2.16,1.55,1.55,0,0,1-1.52,1.36h-19.2A5.94,5.94,0,0,0,457.52,47a10.43,10.43,0,0,0,5.6-1.92,1.39,1.39,0,0,1,2,0l4,4.8a1.72,1.72,0,0,1-.08,2.32A16.28,16.28,0,0,1,457.2,56.8,16.8,16.8,0,0,1,457,23.2ZM461,35.52a4.31,4.31,0,0,0-4.24-3.76,4.46,4.46,0,0,0-4.32,3.76Z" style="fill:#22b573"/><path d="M478,25.52A1.51,1.51,0,0,1,479.52,24h3.75a1.43,1.43,0,0,1,1.44,1l1.45,3.52c1.59-2.32,4.56-5.28,8.72-5.28,4.4,0,7.52,1.6,6.4,3.44L497.36,33a1.36,1.36,0,0,1-1.76.72,5.75,5.75,0,0,0-1.92-.4,4.25,4.25,0,0,0-4.24,4.56V54.48c0,1-.48,1.52-1.76,1.52h-8.16A1.57,1.57,0,0,1,478,54.48Z" style="fill:#22b573"/><path d="M505.59,25.52A1.47,1.47,0,0,1,507.11,24h3.68a1.62,1.62,0,0,1,1.36.88l1.36,3.28a15.14,15.14,0,0,1,10.8-5c4.48,0,7.6,1.68,10.48,4.88a15.73,15.73,0,0,1,11-4.88c9.93,0,14.81,7.68,14.81,16.8V54.48A1.52,1.52,0,0,1,559.12,56h-8.48a1.51,1.51,0,0,1-1.52-1.52v-15c0-3.2-1.68-6-5.37-6A5.44,5.44,0,0,0,538.39,39V54.48A1.52,1.52,0,0,1,536.87,56h-7.68a1.52,1.52,0,0,1-1.52-1.52v-15c0-3.2-1.44-6-5-6a5.42,5.42,0,0,0-5.6,5.6V54.48A1.57,1.57,0,0,1,515.51,56h-8.4a1.52,1.52,0,0,1-1.52-1.52Z" style="fill:#22b573"/><path d="M582.63,23.2A16.8,16.8,0,1,1,566,39.92,16.85,16.85,0,0,1,582.63,23.2Zm0,23.28A6.44,6.44,0,0,0,589,39.92a6.32,6.32,0,1,0-12.64,0A6.44,6.44,0,0,0,582.63,46.48Z" style="fill:#22b573"/><path d="M603.75,52.48l2.8-5.52a1.38,1.38,0,0,1,1.68-.64,17.69,17.69,0,0,0,7.2,2.08A1.4,1.4,0,0,0,617,47c0-.8-.48-1.92-4.56-3.36-6.24-2.16-9-5.76-9-10.72,0-5.36,3.84-9.68,12.48-9.68a21.17,21.17,0,0,1,10.64,2.48c.72.48,1.28,1.2.8,2l-3,5.44a1.41,1.41,0,0,1-1.68.48,18.4,18.4,0,0,0-6.8-1.84c-1,0-1.76.24-1.76,1.12s.88,1.6,3.6,2.56c6.48,2.24,11,4.8,11,11.2,0,5.6-4.48,10.16-13.52,10.16-5.28,0-9.28-1.36-10.88-2.64C603.75,53.68,603.35,53.2,603.75,52.48Z" style="fill:#22b573"/><path d="M636.39,34.16h-2.08a1.5,1.5,0,0,1-1.44-1.52V25.52A1.45,1.45,0,0,1,634.31,24h2.08V15.12a1.57,1.57,0,0,1,1.52-1.52h8.56a1.5,1.5,0,0,1,1.44,1.52V24h5.92a1.47,1.47,0,0,1,1.52,1.52v7.12a1.52,1.52,0,0,1-1.52,1.52h-5.92v10c0,1.76,1.2,1.92,2.16,1.92a15.62,15.62,0,0,0,3.12-.56,1.4,1.4,0,0,1,1.76,1l1.76,6.64a1.59,1.59,0,0,1-1,1.84A41.2,41.2,0,0,1,646,56.8c-6.08,0-9.6-3.84-9.6-11.12Z" style="fill:#22b573"/><path d="M672.23,35.52a15,15,0,0,1,6.16,1.28c0-3.12-.48-4.72-4.32-4.72a34,34,0,0,0-8,1.2c-1.2.4-1.76-.48-1.92-1.68l-.72-5a1.71,1.71,0,0,1,1.2-2.16,56,56,0,0,1,10.64-1.2c9.92,0,13.52,4.16,13.52,13.6V54.48A1.57,1.57,0,0,1,687.27,56h-3.52a1.49,1.49,0,0,1-1.44-1l-1.12-2.16a13.36,13.36,0,0,1-9.68,4c-6.32,0-11-4.24-11-10.56C660.47,40.08,665,35.52,672.23,35.52ZM674.31,49a3.44,3.44,0,1,0,0-6.88,3.4,3.4,0,0,0-3.44,3.36A3.48,3.48,0,0,0,674.31,49Z" style="fill:#22b573"/><path d="M698.23,34.16h-2.08a1.5,1.5,0,0,1-1.44-1.52V25.52A1.45,1.45,0,0,1,696.15,24h2.08V15.12a1.57,1.57,0,0,1,1.52-1.52h8.56a1.5,1.5,0,0,1,1.44,1.52V24h5.92a1.47,1.47,0,0,1,1.52,1.52v7.12a1.52,1.52,0,0,1-1.52,1.52h-5.92v10c0,1.76,1.2,1.92,2.16,1.92a15.62,15.62,0,0,0,3.12-.56,1.4,1.4,0,0,1,1.76,1l1.76,6.64a1.59,1.59,0,0,1-1,1.84,41.2,41.2,0,0,1-9.68,1.76c-6.08,0-9.6-3.84-9.6-11.12Z" style="fill:#22b573"/><path d="M758.79,23.2a14.9,14.9,0,0,1,12,5.76,1.59,1.59,0,0,1-.4,2.24l-4.8,4.56a1.46,1.46,0,0,1-1.76-.16,6.34,6.34,0,0,0-11,4.4A6.3,6.3,0,0,0,759,46.48,6.91,6.91,0,0,0,764.47,44a1.31,1.31,0,0,1,1.76-.32l4.8,4.16c.72.64,1.12,1.44.56,2.24-3,4.48-7.12,6.72-12.88,6.72-9.12,0-17.2-7.2-17.2-16.8C741.51,30.56,749.67,23.2,758.79,23.2Z" style="fill:#22b573"/><path d="M791.75,23.2a16.8,16.8,0,1,1-16.64,16.72A16.85,16.85,0,0,1,791.75,23.2Zm0,23.28a6.44,6.44,0,0,0,6.32-6.56,6.32,6.32,0,1,0-12.64,0A6.44,6.44,0,0,0,791.75,46.48Z" style="fill:#22b573"/><path d="M814.55,25.52A1.47,1.47,0,0,1,816.07,24h3.68a1.62,1.62,0,0,1,1.36.88l1.36,3.28a15.14,15.14,0,0,1,10.8-5c4.48,0,7.6,1.68,10.48,4.88a15.7,15.7,0,0,1,11-4.88c9.92,0,14.8,7.68,14.8,16.8V54.48A1.52,1.52,0,0,1,868.07,56h-8.48a1.52,1.52,0,0,1-1.52-1.52v-15c0-3.2-1.68-6-5.36-6A5.43,5.43,0,0,0,847.35,39V54.48A1.52,1.52,0,0,1,845.83,56h-7.68a1.52,1.52,0,0,1-1.52-1.52v-15c0-3.2-1.44-6-5-6a5.42,5.42,0,0,0-5.6,5.6V54.48A1.57,1.57,0,0,1,824.47,56h-8.4a1.52,1.52,0,0,1-1.52-1.52Z" style="fill:#22b573"/><path d="M738.34,48.28a5,5,0,0,0-.22-2.87,1.06,1.06,0,0,0-1-.56c-.92,0-2.22,1-3.39,3-1.69,2.94-2.09,6.33-1.4,7.53s2.65.5,4.34-2.43A13.68,13.68,0,0,0,738.34,48.28Z" style="fill:#22b573"/><path d="M723.74,53c1.69,2.93,3.64,3.64,4.34,2.43a5,5,0,0,0,.22-2.87,13.56,13.56,0,0,0-1.62-4.66A6.71,6.71,0,0,0,724,45a1.76,1.76,0,0,0-.7-.16,1.05,1.05,0,0,0-.95.55,5,5,0,0,0-.22,2.87A13.68,13.68,0,0,0,723.74,53Z" style="fill:#22b573"/><path d="M732.62,47.06c-.26-3.13-1.23-5.46-2.39-5.46s-2.14,2.33-2.39,5.46a18,18,0,0,1,1.35,4.67,12.58,12.58,0,0,1,.06,3.45,1.12,1.12,0,0,0,2,0A16,16,0,0,1,732.62,47.06Z" style="fill:#22b573"/></g></g></svg>