<svg xmlns="http://www.w3.org/2000/svg" viewBox="0 0 452.26 60.64"><g id="Layer_2" data-name="Layer 2"><g id="Layer_1-2" data-name="Layer 1"><path d="M0,3.29A1.63,1.63,0,0,1,1.58,1.72h10a1.62,1.62,0,0,1,1.57,1.57V58.23a1.63,1.63,0,0,1-1.57,1.58h-10A1.64,1.64,0,0,1,0,58.23Z" style="fill:#22b573"/><path d="M23.66,28.19a1.57,1.57,0,0,1,1.57-1.58h3.9a1.86,1.86,0,0,1,1.5,1L32,30.93a15.68,15.68,0,0,1,11.71-5.15c10.29,0,15.77,7.89,15.77,17.35v15.1a1.64,1.64,0,0,1-1.58,1.58H49a1.58,1.58,0,0,1-1.58-1.58V42.71c0-3.32-1.91-6.22-5.64-6.22a6.05,6.05,0,0,0-6.31,5.81V58.23A1.41,1.41,0,0,1,34,59.81H25.23a1.63,1.63,0,0,1-1.57-1.58Z" style="fill:#22b573"/><path d="M65.74,56.16l2.9-5.73a1.42,1.42,0,0,1,1.74-.66,18.39,18.39,0,0,0,7.47,2.16,1.46,1.46,0,0,0,1.58-1.5c0-.83-.5-2-4.73-3.48-6.47-2.24-9.3-6-9.3-11.12,0-5.57,4-10,12.95-10a21.88,21.88,0,0,1,11,2.58c.75.49,1.33,1.24.83,2.07l-3.07,5.64a1.46,1.46,0,0,1-1.74.5,19.1,19.1,0,0,0-7.06-1.91c-1.08,0-1.82.25-1.82,1.17s.91,1.66,3.73,2.65c6.72,2.32,11.37,5,11.37,11.62,0,5.81-4.65,10.54-14,10.54-5.47,0-9.62-1.41-11.28-2.74C65.74,57.4,65.32,56.91,65.74,56.16Z" style="fill:#22b573"/><path d="M133.63,25.78a16.81,16.81,0,0,1,6.89,1.58V3.29a1.62,1.62,0,0,1,1.57-1.57h9.22a1.62,1.62,0,0,1,1.57,1.57V58.23a1.63,1.63,0,0,1-1.57,1.58H147.4c-.83,0-1.41-.75-1.74-1.66l-1-2.74a14.37,14.37,0,0,1-11.13,5.23c-9.37,0-16.43-7.88-16.43-17.43C117.11,31.51,124.75,25.78,133.63,25.78Zm1.57,24.15a6.59,6.59,0,0,0,6.64-6.8,6.5,6.5,0,0,0-6.64-6.64,6.57,6.57,0,0,0-6.72,6.64A6.66,6.66,0,0,0,135.2,49.93Z" style="fill:#22b573"/><path d="M176.54,25.78a15.52,15.52,0,0,1,15.77,15.61,21.1,21.1,0,0,1-.17,2.24A1.6,1.6,0,0,1,190.56,45H170.65A6.15,6.15,0,0,0,177,50.51a10.8,10.8,0,0,0,5.81-2,1.44,1.44,0,0,1,2.07,0l4.15,5a1.8,1.8,0,0,1-.08,2.41,16.93,16.93,0,0,1-12.29,4.73,17.43,17.43,0,0,1-.16-34.86Zm4.06,12.78a4.47,4.47,0,0,0-4.39-3.9,4.63,4.63,0,0,0-4.48,3.9Z" style="fill:#22b573"/><path d="M203.85,44.87a8.08,8.08,0,0,1,8,8,8,8,0,0,1-8,7.8,7.9,7.9,0,0,1-7.81-7.8A8,8,0,0,1,203.85,44.87Z" style="fill:#22b573"/><path d="M244.76,1A32,32,0,0,1,265,8.77a1.46,1.46,0,0,1,.17,2.24l-6.56,7a1.77,1.77,0,0,1-2.24.09,15.23,15.23,0,0,0-10.87-4,16.64,16.64,0,0,0,.08,33.28A19.54,19.54,0,0,0,253,46V41.22h-5.23a1.51,1.51,0,0,1-1.58-1.49V31.51a1.53,1.53,0,0,1,1.58-1.58h16.68a1.57,1.57,0,0,1,1.5,1.58L266,53.83a2,2,0,0,1-.67,1.33,41.86,41.86,0,0,1-20.58,5.4,29.8,29.8,0,0,1,0-59.59Z" style="fill:#22b573"/><path d="M283.69,38.56a15.54,15.54,0,0,1,6.39,1.33c0-3.23-.5-4.89-4.48-4.89a35.45,35.45,0,0,0-8.3,1.24c-1.24.42-1.82-.5-2-1.74l-.75-5.23A1.77,1.77,0,0,1,275.81,27a57.68,57.68,0,0,1,11-1.25c10.3,0,14,4.32,14,14.11V58.23a1.64,1.64,0,0,1-1.58,1.58h-3.65a1.54,1.54,0,0,1-1.49-1.08L293,56.49a13.9,13.9,0,0,1-10.05,4.15c-6.55,0-11.45-4.4-11.45-11C271.49,43.29,276.14,38.56,283.69,38.56Zm2.16,13.95a3.57,3.57,0,1,0,0-7.14,3.53,3.53,0,0,0-3.57,3.49A3.62,3.62,0,0,0,285.85,52.51Z" style="fill:#22b573"/><path d="M309.34,28.19a1.58,1.58,0,0,1,1.58-1.58h3.9a1.5,1.5,0,0,1,1.49,1l1.49,3.65c1.66-2.41,4.73-5.48,9.05-5.48,4.56,0,7.8,1.66,6.64,3.57L329.42,36a1.41,1.41,0,0,1-1.82.75,5.92,5.92,0,0,0-2-.42,4.41,4.41,0,0,0-4.39,4.73V58.23c0,1-.5,1.58-1.83,1.58h-8.46a1.63,1.63,0,0,1-1.58-1.58Z" style="fill:#22b573"/><path d="M351.83,25.78a16.81,16.81,0,0,1,6.89,1.58V3.29a1.63,1.63,0,0,1,1.58-1.57h9.21a1.63,1.63,0,0,1,1.58,1.57V58.23a1.64,1.64,0,0,1-1.58,1.58h-3.9c-.83,0-1.41-.75-1.74-1.66l-1-2.74a14.37,14.37,0,0,1-11.12,5.23c-9.38,0-16.43-7.88-16.43-17.43C335.32,31.51,343,25.78,351.83,25.78Zm1.58,24.15a6.59,6.59,0,0,0,6.64-6.8,6.5,6.5,0,0,0-6.64-6.64,6.57,6.57,0,0,0-6.72,6.64A6.65,6.65,0,0,0,353.41,49.93Z" style="fill:#22b573"/><path d="M394.74,25.78a15.52,15.52,0,0,1,15.77,15.61,21.08,21.08,0,0,1-.16,2.24A1.61,1.61,0,0,1,408.77,45H388.85a6.15,6.15,0,0,0,6.39,5.47,10.77,10.77,0,0,0,5.81-2,1.44,1.44,0,0,1,2.07,0l4.15,5a1.79,1.79,0,0,1-.08,2.41,16.89,16.89,0,0,1-12.28,4.73,17.43,17.43,0,0,1-.17-34.86Zm4.07,12.78a4.48,4.48,0,0,0-4.4-3.9,4.63,4.63,0,0,0-4.48,3.9Z" style="fill:#22b573"/><path d="M416.49,28.19a1.58,1.58,0,0,1,1.58-1.58H422a1.86,1.86,0,0,1,1.49,1l1.33,3.32a15.63,15.63,0,0,1,11.7-5.15c10.29,0,15.77,7.89,15.77,17.35v15.1a1.64,1.64,0,0,1-1.58,1.58H441.8a1.57,1.57,0,0,1-1.57-1.58V42.71c0-3.32-1.91-6.22-5.65-6.22a6.05,6.05,0,0,0-6.31,5.81V58.23a1.41,1.41,0,0,1-1.49,1.58h-8.71a1.64,1.64,0,0,1-1.58-1.58Z" style="fill:#22b573"/><path d="M117.81,8.82A5.31,5.31,0,0,0,117.44,5a1.85,1.85,0,0,0-1.58-.74c-1.51,0-3.65,1.27-5.58,4-2.79,3.88-3.46,8.35-2.32,9.94s4.37.66,7.16-3.21A15.8,15.8,0,0,0,117.81,8.82Z" style="fill:#22b573"/><path d="M93.7,15c2.79,3.87,6,4.8,7.16,3.21a5.31,5.31,0,0,0,.37-3.79,15.7,15.7,0,0,0-2.68-6.15,10.13,10.13,0,0,0-4.43-3.73A3.77,3.77,0,0,0,93,4.3,1.84,1.84,0,0,0,91.39,5,5.31,5.31,0,0,0,91,8.82,15.63,15.63,0,0,0,93.7,15Z" style="fill:#22b573"/><path d="M108.36,7.2c-.43-4.12-2-7.2-4-7.2s-3.53,3.08-4,7.21a20.2,20.2,0,0,1,2.24,6.15,13.83,13.83,0,0,1,.1,4.56,2.07,2.07,0,0,0,3.23,0A17.36,17.36,0,0,1,108.36,7.2Z" style="fill:#22b573"/><path d="M109,26.61H99.85a1.58,1.58,0,0,0-1.58,1.58v30a1.64,1.64,0,0,0,1.58,1.58H109a1.63,1.63,0,0,0,1.57-1.58v-30A1.57,1.57,0,0,0,109,26.61Z" style="fill:#22b573"/></g></g></svg>