<svg xmlns="http://www.w3.org/2000/svg" viewBox="0 0 43.73 52.47"><g id="Layer_2" data-name="Layer 2"><g id="Layer_1-2" data-name="Layer 1"><path d="M0,9.84a9.84,9.84,0,1,1,9.84,9.84A9.79,9.79,0,0,1,0,9.84ZM31,1.46A1.33,1.33,0,0,1,32.21.73h3.64a1.32,1.32,0,0,1,1.24,2L12,51a1.51,1.51,0,0,1-1.24.73H7.21a1.32,1.32,0,0,1-1.23-2ZM13.34,9.84a3.54,3.54,0,1,0-3.5,3.57A3.55,3.55,0,0,0,13.34,9.84Zm20.47,23A9.84,9.84,0,1,1,24,42.63,9.87,9.87,0,0,1,33.81,32.79Zm0,13.41a3.54,3.54,0,1,0,0-7.07,3.54,3.54,0,1,0,0,7.07Z" style="fill:#333"/></g></g></svg>